# xmcd CD database file
#
# Track frame offsets:
#	183
#	1218
#	3270
#	7313
#	19928
#	29363
#	40613
#	49448
#	58208
#	68328
#	77893
#	86945
#	96058
#	98130
#	110420
#	123465
#	135068
#	144050
#	145993
#	157938
#	167045
#	176753
#	179920
#	191733
#	204420
#	213233
#	221703
#	233075
#	240530
#	253378
#	263340
#	271525
#	281008
#	283123
#
# Disc length: 3908 seconds
#
# Revision: 22
# Processed by: cddbd v1.5.2PL0 Copyright (c) Steve Scherf et al.
# Submitted via: CDex 1.79
#
DISCID=e10f4222
DTITLE=Beatles - Live at the BBC [CD1)
DYEAR=1994
DGENRE=Pop
TTITLE0=Beatle greetings (speech)
TTITLE1=From us to you
TTITLE2=Riding on a bus (speech)
TTITLE3=I got a woman
TTITLE4=Too much monkey business
TTITLE5=Keep your hands off my baby
TTITLE6=I'll be on my way
TTITLE7=Young blood
TTITLE8=A shot of rhythm and blues
TTITLE9=Sure to fall (in love with you)
TTITLE10=Some other guy
TTITLE11=Thank you girl
TTITLE12=Sha la la la la! (speech)
TTITLE13=Baby it's you
TTITLE14=That's all right (mama)
TTITLE15=Carol
TTITLE16=Soldier of love
TTITLE17=A little rhyme (speech)
TTITLE18=Clarabella
TTITLE19=I'm gonna sit right down and cry (over you)
TTITLE20=Crying, waiting, hoping
TTITLE21=Dear wack! (speech)
TTITLE22=You really got a hold on me
TTITLE23=To know her is to love her
TTITLE24=A taste of honey
TTITLE25=Long tall Sally
TTITLE26=I saw her standing there
TTITLE27=The honeymoon song
TTITLE28=Johnny B Goode
TTITLE29=Memphis, Tennessee
TTITLE30=Lucille
TTITLE31=Can't buy me love
TTITLE32=From fluff to you (speech)
TTITLE33=Till there was you
EXTD=MONO AUFNAMEN YEAR: 1994
EXTT0=
EXTT1=
EXTT2=
EXTT3=
EXTT4=
EXTT5=
EXTT6=
EXTT7=
EXTT8=
EXTT9=
EXTT10=
EXTT11=
EXTT12=
EXTT13=
EXTT14=
EXTT15=
EXTT16=
EXTT17=
EXTT18=
EXTT19=
EXTT20=
EXTT21=
EXTT22=
EXTT23=
EXTT24=
EXTT25=
EXTT26=
EXTT27=
EXTT28=
EXTT29=
EXTT30=
EXTT31=
EXTT32=
EXTT33=
PLAYORDER=
